# generated by HE_OBJExport
o 380
v 98.48077525605937 -17.36481802281625 -50.0
v 47.82539763372894 -87.82215746140444 -49.99999999999999
v -38.843479867121765 -92.14762108601884 -49.99999999999999
v -96.26242476543985 -27.084046563946664 -50.0
v -81.1938004197689 58.374367434643204 -50.0
v -4.984588306318695 99.87569213485587 -50.00000000000001
v 74.9781204688609 66.16858356468711 -50.00000000000001
v 74.35836458394087 -9.789464561544131 0.0
v 38.70797041026047 -64.23934173634098 7.105427357601002E-15
v -26.090314981046816 -70.3156843399093 7.105427357601002E-15
v -71.24206104619014 -23.44288245696161 0.0
v -62.747082070346956 41.08288806373213 0.0
v -7.002270488318491 74.67240593424339 -7.105427357601002E-15
v 54.01539359170104 52.0320790967805 -7.105427357601002E-15
v 49.80973489892053 -4.357787202154071 50.0
v 27.648806514223686 -41.659854756576166 50.0
v -15.332237108552963 -47.59120197312851 50.0
v -46.767793467949296 -17.685403420313563 50.0
v -42.9862474568508 25.53786462448237 50.0
v -6.835180351095488 49.530599729540924 50.0
v 34.46291697130433 36.22578299814904 50.0
vn 0.8835477789634059 -0.13881176502594342 0.4472970111449606
vn 0.44235562160438086 -0.7773331897299812 0.4472970111449605
vn -0.3319393412329813 -0.8305068678599833 0.4472970111449604
vn -0.8562772097933209 -0.25829193523869537 0.44729701114496034
vn -0.7358208745073924 0.5084220928126172 0.44729701114496045
vn -0.06127641270694744 0.892283915055378 0.4472970111449605
vn 0.6594104376728551 0.6042377499866081 0.44729701114496057
vn 0.8862515901014847 -0.12005144768510209 0.44737654045703074
vn 0.45870882699328575 -0.7677502478587308 0.4473765404570308
vn -0.3142510387956931 -0.8373174521437653 0.44737654045703074
vn -0.8505734628185414 -0.27636753680122067 0.44737654045703074
vn -0.7463967208023654 0.49269277062300654 0.4473765404570307
vn -0.08016802430360918 0.8907453726671583 0.4473765404570307
vn 0.6464288296254387 0.618048541198654 0.44737654045703074
vn 0.6654264344439839 -0.07581621477260699 0.742603233174163
vn 0.3556110921722611 -0.567521972441007 0.742603233174163
vn -0.2219866556494819 -0.6318721095228351 0.742603233174163
vn -0.632423924064618 -0.22040966029189793 0.7426032331741631
vn -0.5666330785620609 0.35702575867654274 0.742603233174163
vn -0.07415596769390914 0.6656134993633013 0.7426032331741631
vn 0.474162099353825 0.47298069898850326 0.7426032331741631
f 8//8 9//9 1//1
f 2//2 1//1 9//9
f 10//10 3//3 2//2
f 9//9 10//10 2//2
f 11//11 4//4 3//3
f 10//10 11//11 3//3
f 5//5 4//4 12//12
f 11//11 12//12 4//4
f 6//6 5//5 13//13
f 12//12 13//13 5//5
f 6//6 13//13 14//14
f 7//7 6//6 14//14
f 7//7 14//14 8//8
f 1//1 7//7 8//8
f 15//15 16//16 8//8
f 9//9 8//8 16//16
f 17//17 10//10 9//9
f 16//16 17//17 9//9
f 18//18 11//11 10//10
f 17//17 18//18 10//10
f 12//12 11//11 19//19
f 18//18 19//19 11//11
f 13//13 12//12 20//20
f 19//19 20//20 12//12
f 14//14 13//13 21//21
f 20//20 21//21 13//13
f 14//14 21//21 15//15
f 8//8 14//14 15//15
f 19//19 18//18 15//15
f 20//20 19//19 21//21
f 15//15 21//21 19//19
f 16//16 15//15 17//17
f 18//18 17//17 15//15
