# generated by HE_OBJExport
o 62424
v 39.096087192928785 -13.65317333339173 -59.034623943337444
v -24.932939985146326 -30.189592633782844 -60.555239247346194
v -22.208849758713548 25.973987757369517 -63.49896812055222
v 2.419497680936497 38.30802038833937 -61.04622514864057
v 21.25849718434048 34.342402388237446 -59.738393815600446
v 45.23599500552415 1.9955057709538642 -30.618404186884952
v -18.864019279738212 -41.11152515567521 -29.763252781636808
v -36.74355036583258 22.416925701189154 -32.23062670915315
v -15.134109365158986 42.11320570743405 -30.910325232471358
v 5.084649757305707 45.17904692911728 -31.463752923621616
v 41.845912320447276 17.52668081300277 -1.8295331092177118
v -5.063391238061607 -45.04942719591738 0.5088834810842103
v -44.616644400116265 8.841017954613198 -1.104251716377808
v -30.030288484663267 34.182120753294946 -0.25557106879947
v -10.55862454245518 44.314105331449696 -1.331885612296518
v 34.625859671697214 31.46498130329925 27.068470603210397
v 10.711286345155047 -44.01693393295059 30.43077829893443
v -45.92760977495335 -6.956681751352702 30.183111974236972
v -39.74483152504986 21.680826466552393 30.716552023511802
v -23.62946262343417 38.708575952703804 29.130633796828928
v 22.739541557044415 37.31732802690437 57.36140059925199
v 24.243862244319423 -32.53888503577632 59.61087236492178
v -33.90010915340726 -21.6081735877788 59.86542769902752
v -37.61156965564532 5.759571186956358 61.25518074237414
v -26.904851881463536 28.134966053566114 60.700515898970664
v -23.76029213837006 -31.956552615278692 -56.11574306201361
v 38.53816501775672 -13.405694942911392 -55.15483843458622
v -10.354913068577286 -36.532137228387356 -30.29025907636752
v 37.98658859063134 -3.762218030513896 -29.578206087208525
v 1.4802896196115836 -37.84142444926144 -0.1684444540190587
v 36.919336660128195 9.703149886817158 -0.38725911972505916
v 14.497463181343427 -34.96834769363353 29.65506377520097
v 32.59717498944523 22.466080215839995 28.85435207730843
v 24.319465470036953 37.58779712171943 53.63830628245534
v 23.89172947482874 -31.27905496107263 55.03547857028644
v -22.975289463558997 27.136126833192325 -61.45166911986509
v -25.665342540887227 -24.973210785958788 -55.0947402203352
v -33.46476566631314 14.176872935593932 -34.61193211514443
v -21.56808064454602 -30.563468815902812 -30.261455186212416
v -38.59896916159617 2.174576415551844 -3.9845965230733182
v -11.395517867969044 -36.00521378906573 0.1479868639552422
v -37.91018757996512 -11.136003895859519 26.73074547975751
v 1.4769592280362773 -37.68958176958895 30.29059920467981
v 18.09439102564667 -33.80260656033949 53.96002670989599
v -35.30905841424912 -20.87190552685153 56.03575195465173
v -16.38317341544563 30.664845852947984 -59.79884804786293
v -16.964219645226745 35.34983618800294 -33.02818361556066
v -0.1658594345657289 38.09301484258275 -60.3520263448855
v -28.7773522034326 24.562787023354648 -32.22357963096958
v -29.70412722110394 27.324865426560006 -2.5739950750214353
v -37.44385410755214 13.506601249172796 -1.5289113612143832
v -37.42599101039599 15.37982676564162 28.18160411865787
v -40.38235942386806 -0.05265689749318236 29.316402896491077
v -36.38347642675451 -13.937208354153775 56.857883138865965
v -38.93006857426189 3.140179003518738 57.594024220799355
v 5.893169373321441 39.86882555910563 -58.09420249070015
v -0.40662840112655496 40.72387005431621 -30.917275435251483
v 14.559080551275729 37.53446765329751 -58.426547896916745
v -10.006093028537547 39.3864902257607 -29.04867743010719
v -14.26861913075785 38.263854424928766 -0.7362054421645852
v -23.9285588302041 33.237300263696056 1.2569885529342728
v -25.111160489647816 31.742150584628916 29.74296522270501
v -33.372866793656776 22.85917373147016 31.847757759014254
v -37.179949654408226 9.559225537488441 60.1993779991653
v -31.471063315819112 22.863883515228576 57.977591484743385
v 20.45757560497903 35.351482918050344 -56.125784093762
v 37.258617493809034 9.135567868457713 -30.89775389369088
v 38.25414249935636 -6.747864269273747 -53.935687172219346
v 9.826694510456184 38.04609059431922 -27.875258755477287
v 31.819825347436886 21.591833174920108 -1.6531796335346478
v -3.55301855271926 39.301555999117106 1.944503824850088
v 23.722095616503758 31.91908692105018 27.748394623350144
v -15.253383334160285 36.46234443082088 32.059985610276776
v -27.711582487394022 28.581687633839465 58.3746295873978
v 15.911455379631043 36.710061692384365 51.83898272824011
vn 0.8568115739505671 -0.4987184997240242 -0.13097245808707406
vn -0.8219048997042925 -0.5511914272952432 -0.14373707356945015
vn -0.7570431631590054 0.5879537448594871 -0.2849491937519963
vn -0.04040420461789509 0.892943296964508 -0.4483522818670043
vn 0.6125447077508256 0.7408442118442965 -0.27557001793239233
vn 0.9986150538541491 -0.0327267005418782 -0.0411938986685798
vn -0.5579163439841613 -0.8285940892497624 -0.04648858328346589
vn -0.8921324293785162 0.42359770494194676 -0.15705003285291616
vn -0.3864838744037062 0.9139492467775124 -0.12380221783440631
vn 0.1951652366544732 0.9764516169049139 -0.09193894846789907
vn 0.942318927279789 0.3346710290313578 0.00550832255405983
vn -0.07613754433966502 -0.9970502250185397 -0.009691394760554145
vn -0.992359616344903 0.10824006509898372 -0.0592155398114789
vn -0.7212720353026324 0.6923364062751843 -0.020903388155061237
vn -0.15986250021160128 0.9871391548943218 -5.19519604834184E-4
vn 0.4446567633420671 0.8781292536408529 -0.1765485109376895
vn 0.28782351855772936 -0.9546612707235584 0.07602289356193352
vn -0.9781386620683795 -0.14272612309928542 0.1512415668793743
vn -0.9214048960159011 0.37358975177065334 0.10697530074679867
vn -0.48100523398232525 0.8747937814151653 0.058050020490645775
vn 0.2828539657393296 0.9543190095572908 -0.09627492956697374
vn 0.6427847008096926 -0.7616108702862979 0.08232077907030254
vn -0.7691038553728272 -0.5594471430991497 0.30902775559624585
vn -0.8722283627786312 0.13489223828794294 0.47012952174286743
vn -0.6134169623374676 0.7539056394451208 0.23525712981654257
vn 0.14899547820319908 -0.9556036724041604 -0.25420851433947267
vn 0.553303253114346 -0.8298752141163003 0.07185150721109888
vn 0.5034680552610126 -0.8376903289945636 -0.21164789165185086
vn 0.6965986817440358 -0.6901445088478133 0.19608884083415332
vn 0.7472468027869874 -0.6304865410594366 -0.21002127813041394
vn 0.8182220500369629 -0.529828691542867 0.22314621764951217
vn 0.8832188099920225 -0.4275782205852564 -0.1926172343208715
vn 0.9470859593532879 -0.22870568364739677 0.2252152212068248
vn 0.934508542023627 -0.008322178554860631 0.3558434012722113
vn 0.9836975285858717 -0.17778782254847497 0.027030767793759708
vn -0.9338224940118371 -0.005505275507497355 -0.35769434104986797
vn -0.9859826844493431 -0.09126598877090401 -0.13967342359853638
vn -0.938811208527078 -0.26526566797448436 -0.2196989761878236
vn -0.9485481309061724 -0.30525332585233467 0.08412401803584353
vn -0.8511080524475784 -0.47975438045591295 -0.21319197332979842
vn -0.8078200463440319 -0.5634551087680147 0.17304656346761377
vn -0.6375766409115586 -0.7459105464698869 -0.19264860141960088
vn -0.5472450930325139 -0.8024826776255004 0.2377905806857002
vn -0.2806951953743882 -0.9075409789075216 0.312377302148078
vn -0.5566535015925724 -0.8305612661221001 0.01746030877109037
vn -0.4891489185150822 0.7962781906597733 -0.35591344256029905
vn -0.729093936659816 0.6407013528634307 -0.24067365448852485
vn -0.4524791644269378 0.7644463702812511 -0.459221463700599
vn -0.5818467005134582 0.8129410886390043 -0.02410816260174842
vn -0.9051510526722208 0.37713372092660574 -0.19614211273060048
vn -0.7274286581473188 0.6748588479831492 0.12414943658691259
vn -0.9881136043170918 0.07413275167067189 -0.13466937325620965
vn -0.889548245444854 0.4122330061596808 0.19689557551792317
vn -0.9419529753687654 -0.007100345943633689 0.3356697443640267
vn -0.9929239291139648 -0.035020509964155344 0.11347085473696139
vn -0.0014099436811053005 0.9768157697782779 -0.21407700476998145
vn -0.38471559441682346 0.9015216544645027 -0.19812273454628046
vn 0.10097262733403936 0.9077223301840864 -0.4072403464963085
vn -0.049989942798777186 0.9978119377048765 0.043270574211749076
vn -0.6746982739967289 0.7194634938829346 -0.16478628594514652
vn -0.21547969505396972 0.9605563247082698 0.1757840950779935
vn -0.8131415246824614 0.5808443645648131 -0.03769197514565475
vn -0.5094517886583078 0.8339232453663914 0.21220484412575566
vn -0.7285083908449523 0.5173971688034495 0.44897181891815074
vn -0.7699848911598879 0.5312817334348178 0.3533595719716546
vn 0.7678447203727189 0.6402004623651799 0.02361892002508014
vn 0.6876303977233668 0.6942174470359446 -0.2126654000012696
vn 0.8581659515639092 0.4439522017272068 -0.2577937977492398
vn 0.6535172416521854 0.7372800433231499 0.17126982390582807
vn 0.4002555067975647 0.8939897421625554 -0.20143949510051926
vn 0.3682521787110446 0.9191349171862245 0.13993333013846637
vn 0.12839589590580167 0.9798960862768621 -0.15270282909571428
vn 0.13802148277238968 0.9833249513429669 0.11841499212372804
vn -0.1644198281333066 0.9604700778689989 0.22464048974958464
vn -0.06396793211915329 0.9969354594372991 0.04503102682529871
f 26//26 27//27 28//28
f 28//28 27//27 29//29
f 38//38 36//36 37//37
f 38//38 37//37 39//39
f 46//46 47//47 48//48
f 49//49 47//47 46//46
f 57//57 58//58 56//56
f 59//59 57//57 56//56
f 66//66 67//67 68//68
f 69//69 67//67 66//66
f 28//28 29//29 30//30
f 30//30 29//29 31//31
f 40//40 38//38 39//39
f 40//40 39//39 41//41
f 49//49 50//50 47//47
f 51//51 50//50 49//49
f 59//59 60//60 57//57
f 61//61 60//60 59//59
f 69//69 70//70 67//67
f 71//71 70//70 69//69
f 30//30 31//31 32//32
f 32//32 31//31 33//33
f 42//42 40//40 41//41
f 42//42 41//41 43//43
f 51//51 52//52 50//50
f 53//53 52//52 51//51
f 61//61 62//62 60//60
f 63//63 62//62 61//61
f 71//71 72//72 70//70
f 73//73 72//72 71//71
f 32//32 33//33 35//35
f 34//34 35//35 33//33
f 42//42 43//43 45//45
f 45//45 43//43 44//44
f 53//53 55//55 52//52
f 53//53 54//54 55//55
f 63//63 65//65 62//62
f 64//64 65//65 63//63
f 73//73 75//75 72//72
f 74//74 75//75 73//73
f 26//26 1//1 27//27
f 26//26 2//2 1//1
f 1//1 29//29 27//27
f 1//1 6//6 29//29
f 26//26 7//7 2//2
f 26//26 28//28 7//7
f 11//11 31//31 6//6
f 6//6 31//31 29//29
f 7//7 28//28 12//12
f 28//28 30//30 12//12
f 16//16 33//33 11//11
f 11//11 33//33 31//31
f 12//12 30//30 17//17
f 30//30 32//32 17//17
f 21//21 34//34 16//16
f 34//34 33//33 16//16
f 21//21 35//35 34//34
f 21//21 22//22 35//35
f 17//17 32//32 22//22
f 32//32 35//35 22//22
f 37//37 3//3 2//2
f 37//37 36//36 3//3
f 37//37 2//2 39//39
f 39//39 2//2 7//7
f 38//38 3//3 36//36
f 38//38 8//8 3//3
f 39//39 7//7 41//41
f 7//7 12//12 41//41
f 40//40 8//8 38//38
f 40//40 13//13 8//8
f 41//41 12//12 43//43
f 12//12 17//17 43//43
f 42//42 13//13 40//40
f 42//42 18//18 13//13
f 43//43 17//17 44//44
f 17//17 22//22 44//44
f 45//45 44//44 23//23
f 23//23 44//44 22//22
f 42//42 45//45 18//18
f 18//18 45//45 23//23
f 49//49 3//3 8//8
f 49//49 46//46 3//3
f 47//47 9//9 48//48
f 9//9 4//4 48//48
f 3//3 46//46 4//4
f 46//46 48//48 4//4
f 51//51 8//8 13//13
f 51//51 49//49 8//8
f 50//50 9//9 47//47
f 50//50 14//14 9//9
f 53//53 13//13 18//18
f 53//53 51//51 13//13
f 52//52 14//14 50//50
f 52//52 19//19 14//14
f 53//53 18//18 54//54
f 54//54 18//18 23//23
f 55//55 54//54 24//24
f 54//54 23//23 24//24
f 55//55 19//19 52//52
f 55//55 24//24 19//19
f 59//59 4//4 9//9
f 59//59 56//56 4//4
f 57//57 10//10 58//58
f 10//10 5//5 58//58
f 4//4 58//58 5//5
f 4//4 56//56 58//58
f 61//61 9//9 14//14
f 61//61 59//59 9//9
f 60//60 15//15 57//57
f 15//15 10//10 57//57
f 63//63 14//14 19//19
f 63//63 61//61 14//14
f 62//62 20//20 60//60
f 20//20 15//15 60//60
f 64//64 19//19 24//24
f 64//64 63//63 19//19
f 64//64 24//24 65//65
f 24//24 25//25 65//65
f 65//65 25//25 62//62
f 25//25 20//20 62//62
f 69//69 66//66 10//10
f 10//10 66//66 5//5
f 1//1 68//68 6//6
f 6//6 68//68 67//67
f 5//5 68//68 1//1
f 5//5 66//66 68//68
f 71//71 69//69 15//15
f 15//15 69//69 10//10
f 11//11 67//67 70//70
f 11//11 6//6 67//67
f 73//73 71//71 20//20
f 20//20 71//71 15//15
f 72//72 16//16 70//70
f 16//16 11//11 70//70
f 74//74 73//73 25//25
f 25//25 73//73 20//20
f 74//74 25//25 75//75
f 25//25 21//21 75//75
f 75//75 21//21 72//72
f 21//21 16//16 72//72
